<svg width="30" height="30" viewBox="0 0 30 30" fill="none" xmlns="http://www.w3.org/2000/svg">
<path d="M25.64 22.614L19.6394 16.6135C20.7161 14.9041 21.1252 12.8579 20.7884 10.8659C20.4517 8.87394 19.3927 7.0759 17.8139 5.81543C16.2351 4.55496 14.2472 3.92046 12.2301 4.03318C10.213 4.14591 8.30815 4.99795 6.87962 6.42648C5.45109 7.85501 4.59904 9.75985 4.48632 11.7769C4.37359 13.794 5.0081 15.782 6.26856 17.3608C7.52903 18.9396 9.32707 19.9985 11.319 20.3353C13.311 20.6721 15.3573 20.263 17.0667 19.1863L23.0672 25.1868C23.1517 25.2713 23.252 25.3383 23.3624 25.384C23.4727 25.4298 23.591 25.4533 23.7105 25.4533C23.8299 25.4533 23.9482 25.4298 24.0586 25.384C24.169 25.3383 24.2693 25.2713 24.3537 25.1868L25.64 23.9004C25.8106 23.7298 25.9064 23.4984 25.9064 23.2572C25.9064 23.0159 25.8106 22.7846 25.64 22.614ZM12.7163 17.7212C11.6368 17.7212 10.5816 17.4011 9.68401 16.8014C8.78645 16.2016 8.08688 15.3492 7.67378 14.3519C7.26067 13.3546 7.15259 12.2571 7.36318 11.1984C7.57378 10.1396 8.09361 9.16711 8.85692 8.40379C9.62024 7.64048 10.5928 7.12065 11.6515 6.91005C12.7103 6.69945 13.8077 6.80754 14.805 7.22064C15.8023 7.63375 16.6548 8.33331 17.2545 9.23088C17.8542 10.1284 18.1743 11.1837 18.1743 12.2632C18.1727 13.7103 17.5972 15.0976 16.574 16.1208C15.5507 17.1441 14.1634 17.7196 12.7163 17.7212Z" fill="#01B4E4"/>
</svg>
